<svg id="svg" xmlns="http://www.w3.org/2000/svg" xmlns:xlink="http://www.w3.org/1999/xlink" width="400" height="375.3086419753086" viewBox="0, 0, 400,375.3086419753086"><g id="svgg"><path id="path0" d="M286.004 15.494 C 288.967 15.533,293.745 15.533,296.622 15.494 C 299.498 15.454,297.074 15.422,291.235 15.422 C 285.395 15.422,283.041 15.454,286.004 15.494 M302.649 15.487 C 303.087 15.541,303.865 15.542,304.377 15.489 C 304.889 15.435,304.531 15.391,303.580 15.390 C 302.630 15.389,302.210 15.432,302.649 15.487 M141.101 27.654 C 141.101 33.698,141.133 36.170,141.173 33.148 C 141.212 30.127,141.212 25.182,141.173 22.160 C 141.133 19.139,141.101 21.611,141.101 27.654 M187.510 21.975 C 187.510 24.488,187.547 25.515,187.591 24.259 C 187.636 23.003,187.636 20.948,187.591 19.691 C 187.547 18.435,187.510 19.463,187.510 21.975 M375.401 25.309 C 375.402 26.802,375.442 27.382,375.491 26.596 C 375.541 25.810,375.540 24.588,375.490 23.880 C 375.441 23.172,375.400 23.815,375.401 25.309 M187.520 40.494 C 187.520 45.994,187.553 48.244,187.592 45.494 C 187.632 42.744,187.632 38.244,187.592 35.494 C 187.553 32.744,187.520 34.994,187.520 40.494 M375.164 43.951 C 375.164 46.463,375.201 47.491,375.246 46.235 C 375.291 44.978,375.291 42.923,375.246 41.667 C 375.201 40.410,375.164 41.438,375.164 43.951 M375.129 55.309 C 375.129 55.920,375.177 56.170,375.236 55.864 C 375.295 55.559,375.295 55.059,375.236 54.753 C 375.177 54.448,375.129 54.698,375.129 55.309 M210.707 57.901 C 210.708 59.259,210.750 59.783,210.800 59.066 C 210.850 58.348,210.849 57.237,210.798 56.597 C 210.748 55.956,210.707 56.543,210.707 57.901 M375.180 86.790 C 375.180 100.370,375.210 105.962,375.247 99.216 C 375.283 92.471,375.283 81.359,375.247 74.525 C 375.210 67.691,375.181 73.210,375.180 86.790 M187.767 95.802 C 187.767 101.302,187.799 103.552,187.839 100.802 C 187.879 98.052,187.879 93.552,187.839 90.802 C 187.799 88.052,187.767 90.302,187.767 95.802 M210.931 92.593 C 210.931 93.204,210.980 93.454,211.038 93.148 C 211.097 92.843,211.097 92.343,211.038 92.037 C 210.980 91.731,210.931 91.981,210.931 92.593 M94.639 107.037 C 94.640 107.716,94.688 107.965,94.745 107.589 C 94.802 107.214,94.800 106.658,94.742 106.355 C 94.683 106.051,94.637 106.358,94.639 107.037 M187.770 131.605 C 187.770 139.414,187.801 142.608,187.839 138.704 C 187.878 134.799,187.878 128.410,187.839 124.506 C 187.801 120.602,187.770 123.796,187.770 131.605 M375.165 125.556 C 375.165 128.136,375.201 129.158,375.246 127.827 C 375.290 126.496,375.290 124.384,375.246 123.135 C 375.201 121.886,375.164 122.975,375.165 125.556 M141.311 125.062 C 141.312 125.877,141.359 126.180,141.414 125.736 C 141.468 125.293,141.467 124.626,141.411 124.255 C 141.355 123.884,141.310 124.247,141.311 125.062 M94.682 136.049 C 94.682 142.228,94.714 144.756,94.753 141.667 C 94.792 138.577,94.792 133.522,94.753 130.432 C 94.714 127.343,94.682 129.870,94.682 136.049 M141.326 130.617 C 141.326 132.043,141.367 132.627,141.417 131.914 C 141.466 131.201,141.466 130.034,141.417 129.321 C 141.367 128.608,141.326 129.191,141.326 130.617 M375.162 134.568 C 375.162 136.809,375.200 137.725,375.245 136.605 C 375.291 135.485,375.291 133.651,375.245 132.531 C 375.200 131.410,375.162 132.327,375.162 134.568 M374.907 148.272 C 374.908 149.765,374.948 150.345,374.998 149.559 C 375.047 148.773,375.046 147.551,374.997 146.843 C 374.947 146.135,374.907 146.778,374.907 148.272 M374.882 152.099 C 374.882 152.710,374.930 152.960,374.989 152.654 C 375.048 152.349,375.048 151.849,374.989 151.543 C 374.930 151.238,374.882 151.488,374.882 152.099 M375.124 159.877 C 375.127 160.420,375.177 160.613,375.236 160.306 C 375.295 159.999,375.293 159.554,375.231 159.318 C 375.170 159.082,375.121 159.333,375.124 159.877 M374.917 171.358 C 374.917 173.870,374.954 174.898,374.999 173.642 C 375.044 172.386,375.044 170.330,374.999 169.074 C 374.954 167.818,374.917 168.846,374.917 171.358 M38.867 197.742 C 38.939 197.858,38.084 198.825,36.968 199.891 C 35.852 200.956,32.521 204.213,29.566 207.128 L 24.194 212.427 24.257 228.498 L 24.321 244.568 29.258 239.753 C 31.973 237.105,37.251 231.934,40.986 228.263 C 51.508 217.920,59.279 210.319,63.333 206.404 C 65.370 204.436,68.176 201.725,69.568 200.379 C 71.327 198.679,72.005 197.871,71.791 197.735 C 71.371 197.468,38.702 197.476,38.867 197.742 M106.394 197.729 C 105.632 197.793,105.097 198.203,102.690 200.573 C 101.143 202.097,97.710 205.455,95.062 208.037 C 76.605 226.027,68.478 233.963,63.086 239.261 C 59.691 242.597,52.247 249.876,46.543 255.437 C 40.840 260.997,33.512 268.187,30.260 271.414 C 26.218 275.425,24.286 277.183,24.153 276.973 C 24.046 276.805,23.956 284.157,23.954 293.312 L 23.951 309.957 27.095 306.892 C 28.824 305.206,34.352 299.765,39.379 294.800 C 48.144 286.142,53.842 280.556,64.562 270.114 C 67.275 267.471,72.775 262.081,76.784 258.135 C 80.794 254.190,86.074 249.025,88.519 246.656 C 94.076 241.272,101.649 233.871,110.122 225.543 C 113.722 222.005,118.443 217.394,120.614 215.296 C 122.785 213.198,127.170 208.926,130.357 205.802 C 137.715 198.591,138.021 198.300,138.495 198.028 C 138.737 197.889,133.657 197.788,125.309 197.767 C 117.840 197.748,110.728 197.715,109.506 197.693 C 108.284 197.672,106.883 197.688,106.394 197.729 M167.716 197.958 C 168.225 198.011,169.059 198.011,169.568 197.958 C 170.077 197.904,169.660 197.861,168.642 197.861 C 167.623 197.861,167.207 197.904,167.716 197.958 M171.012 198.122 C 171.076 198.289,169.930 199.574,168.465 200.978 C 165.798 203.533,162.621 206.631,150.857 218.149 C 147.390 221.544,142.390 226.425,139.746 228.997 C 137.102 231.568,132.383 236.183,129.259 239.251 C 126.136 242.320,118.747 249.544,112.840 255.306 C 106.932 261.068,97.265 270.567,91.358 276.416 C 85.451 282.264,77.395 290.213,73.457 294.080 C 69.519 297.947,63.130 304.230,59.259 308.041 C 55.389 311.853,49.500 317.629,46.173 320.876 C 42.846 324.124,36.562 330.314,32.209 334.633 C 27.857 338.951,24.218 342.407,24.123 342.312 C 24.028 342.217,23.951 345.825,23.951 350.329 L 23.951 358.519 32.289 358.519 L 40.627 358.519 47.412 351.784 C 56.366 342.896,77.389 322.217,89.506 310.376 C 100.602 299.535,106.628 293.633,113.210 287.162 C 119.207 281.266,135.618 265.190,149.878 251.243 C 152.799 248.386,157.076 244.214,159.384 241.971 C 161.692 239.728,168.956 232.617,175.526 226.169 C 182.096 219.720,187.570 214.473,187.690 214.507 C 187.814 214.543,187.880 210.980,187.843 206.236 L 187.778 197.901 179.337 197.860 C 172.743 197.827,170.921 197.885,171.012 198.122 M370.802 198.693 C 371.108 198.752,371.608 198.752,371.914 198.693 C 372.219 198.634,371.969 198.586,371.358 198.586 C 370.747 198.586,370.497 198.634,370.802 198.693 M374.923 205.802 C 374.923 209.605,374.958 211.126,375.000 209.183 C 375.041 207.239,375.041 204.128,374.999 202.269 C 374.957 200.410,374.923 202.000,374.923 205.802 M185.926 248.620 C 183.812 250.763,162.429 271.716,156.296 277.652 C 149.854 283.889,140.685 292.854,133.580 299.864 C 129.981 303.415,122.926 310.312,117.901 315.192 C 102.596 330.055,96.127 336.393,79.927 352.397 L 73.804 358.446 75.333 358.606 C 78.656 358.953,107.155 358.790,107.014 358.425 C 106.941 358.235,107.190 357.845,107.578 357.541 C 107.959 357.243,111.883 353.430,116.296 349.067 C 126.839 338.647,133.626 331.985,146.790 319.135 C 159.760 306.474,166.571 299.808,175.184 291.344 C 188.159 278.592,187.510 279.183,187.687 279.946 C 187.773 280.315,187.856 272.978,187.872 263.642 C 187.888 254.306,187.873 246.684,187.840 246.704 C 187.806 246.725,186.944 247.587,185.926 248.620 M374.931 261.358 C 374.931 269.506,374.962 272.804,375.000 268.686 C 375.038 264.568,375.038 257.902,375.000 253.871 C 374.962 249.841,374.931 253.210,374.931 261.358 M187.712 281.975 C 187.712 282.451,187.762 282.645,187.825 282.407 C 187.887 282.170,187.887 281.781,187.825 281.543 C 187.762 281.306,187.712 281.500,187.712 281.975 M187.764 295.185 C 187.765 299.531,187.798 301.274,187.839 299.059 C 187.880 296.843,187.880 293.288,187.839 291.157 C 187.798 289.027,187.764 290.840,187.764 295.185 M187.654 310.947 C 187.654 311.359,186.859 312.291,184.877 314.201 C 183.349 315.673,178.488 320.444,174.074 324.803 C 167.077 331.714,149.277 349.133,142.158 356.035 C 140.490 357.652,139.848 358.426,140.062 358.562 C 140.484 358.830,172.903 358.820,172.737 358.552 C 172.622 358.366,174.511 356.465,185.254 345.949 C 187.007 344.234,187.467 343.898,187.658 344.198 C 187.809 344.435,187.895 338.421,187.897 327.469 C 187.900 318.065,187.846 310.370,187.778 310.370 C 187.710 310.370,187.654 310.630,187.654 310.947 M375.143 312.469 C 375.144 313.420,375.188 313.778,375.242 313.266 C 375.295 312.754,375.294 311.976,375.240 311.538 C 375.185 311.099,375.142 311.519,375.143 312.469 M375.119 316.049 C 375.119 316.525,375.170 316.719,375.232 316.481 C 375.294 316.244,375.294 315.855,375.232 315.617 C 375.170 315.380,375.119 315.574,375.119 316.049 M375.174 327.037 C 375.174 332.605,375.207 334.918,375.247 332.177 C 375.286 329.436,375.286 324.881,375.247 322.054 C 375.207 319.227,375.175 321.469,375.174 327.037 M187.712 345.679 C 187.712 346.154,187.762 346.349,187.825 346.111 C 187.887 345.873,187.887 345.485,187.825 345.247 C 187.762 345.009,187.712 345.204,187.712 345.679 M187.761 352.469 C 187.761 355.728,187.796 357.028,187.839 355.356 C 187.882 353.685,187.882 351.018,187.839 349.430 C 187.796 347.842,187.761 349.210,187.761 352.469 M122.654 358.693 C 122.960 358.752,123.460 358.752,123.765 358.693 C 124.071 358.634,123.821 358.586,123.210 358.586 C 122.599 358.586,122.349 358.634,122.654 358.693 M127.593 358.703 C 129.256 358.746,131.978 358.746,133.642 358.703 C 135.306 358.660,133.944 358.625,130.617 358.625 C 127.290 358.625,125.929 358.660,127.593 358.703 M182.047 358.702 C 182.970 358.749,184.414 358.749,185.257 358.701 C 186.100 358.653,185.346 358.614,183.580 358.614 C 181.815 358.615,181.125 358.654,182.047 358.702 M269.938 358.703 C 271.534 358.746,274.145 358.746,275.741 358.703 C 277.336 358.660,276.031 358.625,272.840 358.625 C 269.648 358.625,268.343 358.660,269.938 358.703 M356.852 359.183 C 357.090 359.245,357.478 359.245,357.716 359.183 C 357.954 359.120,357.759 359.070,357.284 359.070 C 356.809 359.070,356.614 359.120,356.852 359.183 " stroke="none" fill="#e11831" fill-rule="evenodd"></path><path id="path1" d="M1.394 54.012 C 1.306 83.719,1.177 143.358,1.106 186.543 C 1.036 229.728,0.924 289.689,0.857 319.789 C 0.791 349.889,0.805 374.695,0.888 374.913 C 1.028 375.276,17.636 375.309,200.060 375.309 L 399.079 375.309 398.923 364.259 C 398.113 306.922,398.466 48.572,399.411 6.605 L 399.560 0.000 200.557 0.000 L 1.554 0.000 1.394 54.012 M48.014 45.371 C 48.007 62.176,47.980 98.176,47.952 125.370 L 47.901 174.815 36.032 174.815 L 24.163 174.815 24.307 99.321 C 24.387 57.799,24.518 21.799,24.598 19.321 L 24.745 14.815 36.385 14.815 L 48.025 14.815 48.014 45.371 M94.438 15.051 C 94.636 15.371,94.680 174.434,94.482 174.754 C 94.335 174.993,91.693 175.062,82.701 175.062 L 71.111 175.062 71.111 95.103 C 71.111 51.126,71.191 15.064,71.288 14.967 C 71.522 14.733,94.292 14.816,94.438 15.051 M141.126 16.049 C 141.166 17.749,141.274 133.374,141.254 154.012 L 141.235 175.062 129.506 175.062 L 117.778 175.062 117.776 102.037 C 117.775 61.873,117.702 26.054,117.615 22.438 C 117.527 18.822,117.524 15.682,117.609 15.460 C 117.750 15.094,118.828 15.063,129.435 15.121 L 141.106 15.185 141.126 16.049 M187.534 17.623 C 187.630 19.032,187.672 22.559,187.626 25.462 C 187.506 33.016,187.856 148.114,188.043 162.747 C 188.161 172.004,188.128 175.045,187.909 175.180 C 187.750 175.279,182.423 175.278,176.071 175.178 L 164.522 174.996 164.380 95.220 C 164.302 51.343,164.291 15.358,164.356 15.253 C 164.420 15.148,169.623 15.062,175.917 15.062 L 187.360 15.062 187.534 17.623 M263.827 15.354 C 287.185 15.364,321.741 15.354,340.617 15.332 C 359.494 15.310,375.089 15.295,375.274 15.300 C 375.554 15.307,375.581 17.583,375.441 29.198 C 375.348 36.836,375.242 72.894,375.203 109.326 C 375.165 145.758,375.079 175.621,375.012 175.688 C 374.680 176.019,211.305 175.556,210.947 175.223 C 210.925 175.202,210.835 139.221,210.747 95.265 L 210.588 15.344 211.282 15.265 C 211.663 15.221,214.086 15.219,216.667 15.260 C 219.247 15.301,240.469 15.343,263.827 15.354 M162.840 197.840 L 187.778 197.901 187.840 278.012 C 187.883 333.790,187.823 358.202,187.642 358.382 C 187.391 358.634,111.238 358.741,48.578 358.578 L 23.946 358.514 24.009 303.763 C 24.043 273.650,24.101 237.412,24.138 223.233 L 24.204 197.454 81.053 197.616 C 112.319 197.706,149.123 197.807,162.840 197.840 M249.877 198.014 C 269.792 197.989,291.920 198.065,293.086 198.162 C 294.993 198.320,327.172 198.294,327.432 198.133 C 327.567 198.050,332.589 198.044,338.592 198.121 C 344.595 198.198,355.006 198.325,361.728 198.404 C 368.451 198.483,374.179 198.594,374.457 198.649 L 374.964 198.750 375.004 238.696 C 375.027 260.666,375.112 296.586,375.195 318.519 C 375.296 345.525,375.263 358.513,375.092 358.760 C 374.823 359.150,353.107 359.194,310.864 358.892 C 301.019 358.822,274.549 358.730,252.043 358.688 C 229.536 358.646,211.055 358.544,210.972 358.462 C 210.890 358.380,210.833 333.720,210.846 303.662 C 210.859 273.605,210.867 237.550,210.864 223.540 C 210.859 203.269,210.922 198.038,211.170 197.922 C 211.341 197.842,217.481 197.833,224.815 197.902 C 232.148 197.972,243.426 198.022,249.877 198.014 " stroke="none" fill="#0a0908" fill-rule="evenodd"></path><path id="path2" d="M0.000 187.654 C 0.000 345.380,0.053 375.309,0.335 375.309 C 0.615 375.309,0.695 361.466,0.829 289.568 C 1.097 144.971,1.230 85.592,1.381 41.914 L 1.525 0.000 0.763 0.000 L 0.000 0.000 0.000 187.654 M399.421 9.074 C 398.313 70.427,398.408 375.309,399.537 375.309 C 399.989 375.309,400.000 371.046,400.000 187.654 C 400.000 84.444,399.907 0.000,399.793 0.000 C 399.679 0.000,399.512 4.083,399.421 9.074 M24.641 32.037 C 24.567 56.821,24.571 54.614,24.487 117.284 L 24.410 174.691 35.992 174.755 L 47.574 174.820 47.738 164.406 C 47.828 158.679,47.901 122.678,47.901 84.404 L 47.901 14.815 36.296 14.815 L 24.691 14.815 24.641 32.037 M71.331 17.316 C 71.316 18.724,71.289 54.738,71.269 97.346 L 71.235 174.815 77.531 174.835 C 80.994 174.845,85.216 174.869,86.914 174.886 C 88.611 174.904,91.029 174.895,92.286 174.867 L 94.572 174.815 94.563 95.072 C 94.558 51.213,94.473 15.281,94.375 15.223 C 94.278 15.164,89.059 15.036,82.778 14.936 L 71.358 14.756 71.331 17.316 M117.881 93.516 C 117.945 136.669,118.004 172.670,118.011 173.519 L 118.025 175.062 129.630 175.062 L 141.235 175.062 141.199 120.556 C 141.180 90.577,141.096 54.605,141.014 40.617 L 140.864 15.185 129.314 15.121 L 117.763 15.057 117.881 93.516 M165.709 15.228 L 164.134 15.334 164.320 29.457 C 164.485 41.876,164.552 66.158,164.663 153.148 L 164.691 175.062 176.296 175.062 L 187.902 175.062 187.778 154.506 C 187.711 143.201,187.599 107.293,187.531 74.711 C 187.462 42.130,187.378 15.444,187.344 15.410 C 187.226 15.291,167.268 15.123,165.709 15.228 M210.621 27.284 C 210.623 33.802,210.711 39.001,210.815 38.836 C 211.069 38.436,374.815 38.455,374.815 38.855 C 374.815 39.015,374.896 39.024,375.032 38.877 C 375.151 38.748,375.290 33.420,375.340 27.037 L 375.432 15.432 293.025 15.432 L 210.617 15.432 210.621 27.284 M374.766 60.062 L 374.691 61.358 352.469 61.337 C 302.559 61.288,233.962 61.103,222.963 60.988 L 211.235 60.864 211.081 60.000 C 210.996 59.525,210.941 64.763,210.957 71.640 L 210.988 84.145 292.840 84.323 C 337.858 84.422,374.775 84.551,374.877 84.611 C 374.978 84.671,375.062 78.881,375.062 71.743 C 375.062 59.979,374.973 56.469,374.766 60.062 M210.901 103.765 C 210.881 104.954,210.948 105.926,211.049 105.926 C 211.151 105.927,211.203 105.232,211.165 104.383 C 211.048 101.759,210.940 101.506,210.901 103.765 M210.864 118.533 C 210.864 126.710,210.948 130.842,211.111 130.741 C 211.247 130.657,211.358 130.410,211.358 130.192 C 211.358 129.829,214.799 129.810,252.037 129.962 C 274.410 130.054,307.327 130.142,325.185 130.158 C 343.043 130.174,361.514 130.256,366.232 130.341 C 373.255 130.466,374.833 130.434,374.936 130.165 C 375.115 129.697,375.093 107.775,374.912 107.306 C 374.830 107.092,374.647 106.988,374.506 107.076 C 374.213 107.256,299.858 107.226,283.457 107.039 C 277.549 106.971,258.994 106.852,242.222 106.774 C 224.020 106.688,211.634 106.539,211.494 106.402 C 211.365 106.276,211.170 106.173,211.062 106.173 C 210.953 106.173,210.864 111.735,210.864 118.533 M210.864 131.866 C 210.864 132.146,210.975 132.306,211.111 132.222 C 211.247 132.138,211.358 131.910,211.358 131.714 C 211.358 131.518,211.247 131.358,211.111 131.358 C 210.975 131.358,210.864 131.587,210.864 131.866 M210.947 152.239 C 210.891 152.384,210.878 157.606,210.917 163.844 L 210.988 175.185 230.741 175.335 C 241.605 175.417,278.466 175.574,312.654 175.684 L 374.815 175.883 374.821 172.818 C 374.824 171.132,374.887 166.031,374.960 161.481 C 375.032 156.932,375.002 153.099,374.892 152.963 C 374.762 152.803,373.296 152.777,370.741 152.891 C 368.568 152.988,359.790 153.018,351.235 152.957 C 342.679 152.897,310.235 152.727,279.136 152.579 C 248.037 152.431,219.995 152.234,216.820 152.142 C 212.811 152.026,211.017 152.056,210.947 152.239 M28.086 197.722 L 24.198 197.790 24.198 204.944 C 24.198 208.879,24.276 212.099,24.371 212.099 C 24.466 212.099,26.994 209.669,29.988 206.699 C 32.982 203.730,36.236 200.549,37.218 199.632 C 39.474 197.527,39.434 197.483,35.346 197.577 C 33.492 197.620,30.225 197.685,28.086 197.722 M72.326 197.790 C 72.205 197.864,70.577 199.415,68.708 201.237 C 66.838 203.058,63.531 206.269,61.358 208.373 C 55.149 214.384,48.592 220.803,29.074 239.975 L 24.198 244.764 24.198 261.024 C 24.198 269.967,24.225 277.284,24.259 277.284 C 24.293 277.283,27.154 274.478,30.617 271.049 C 34.080 267.620,41.414 260.430,46.914 255.071 C 52.414 249.712,59.803 242.489,63.333 239.021 C 66.864 235.553,71.864 230.657,74.445 228.141 C 80.908 221.837,89.561 213.380,95.307 207.752 C 97.956 205.157,101.290 201.917,102.716 200.550 C 104.141 199.183,105.250 198.007,105.178 197.936 C 105.004 197.761,72.604 197.618,72.326 197.790 M137.178 199.215 C 136.354 199.979,133.235 203.007,130.247 205.944 C 127.259 208.881,122.981 213.047,120.741 215.202 C 118.500 217.357,113.333 222.402,109.259 226.413 C 105.185 230.424,99.462 236.039,96.542 238.890 C 91.282 244.025,84.768 250.401,73.084 261.852 C 69.758 265.111,62.537 272.163,57.037 277.523 C 51.537 282.882,42.815 291.440,37.654 296.539 C 32.494 301.638,27.299 306.746,26.111 307.890 L 23.951 309.969 23.951 326.081 C 23.951 334.943,24.036 342.246,24.141 342.310 C 24.245 342.375,28.331 338.465,33.220 333.621 C 38.109 328.778,47.496 319.542,54.080 313.098 C 69.216 298.281,77.116 290.507,90.739 277.020 C 96.715 271.103,103.990 263.937,106.906 261.094 C 109.821 258.252,114.739 253.432,117.833 250.384 C 120.928 247.336,123.573 244.772,123.711 244.687 C 123.849 244.602,126.765 241.762,130.192 238.377 C 133.618 234.992,141.143 227.616,146.915 221.985 C 152.686 216.355,159.296 209.897,161.605 207.634 C 163.914 205.371,167.025 202.348,168.518 200.916 C 170.012 199.484,171.179 198.262,171.111 198.201 C 171.043 198.139,163.718 198.030,154.832 197.958 L 138.677 197.827 137.178 199.215 M227.654 198.227 C 227.654 198.338,231.293 202.026,235.741 206.423 C 251.915 222.412,260.197 230.562,263.582 233.822 C 268.526 238.585,276.603 246.487,286.422 256.167 C 295.196 264.817,302.781 272.254,311.607 280.860 C 314.390 283.574,319.167 288.246,322.222 291.244 C 336.963 305.704,354.561 322.930,357.778 326.047 C 362.060 330.198,370.510 338.420,373.070 340.927 C 374.079 341.916,374.979 342.639,375.068 342.535 C 375.158 342.431,375.185 335.179,375.127 326.420 L 375.022 310.494 369.297 304.815 C 366.149 301.691,361.797 297.418,359.626 295.319 C 357.455 293.219,351.510 287.386,346.415 282.356 C 341.320 277.326,335.209 271.328,332.835 269.028 C 320.433 257.014,304.700 241.618,287.778 224.937 C 283.296 220.520,276.791 214.129,273.322 210.737 C 269.852 207.344,265.510 203.096,263.672 201.296 L 260.329 198.025 243.992 198.025 C 235.006 198.025,227.654 198.116,227.654 198.227 M293.478 198.485 C 293.405 198.602,293.760 199.067,294.266 199.519 C 295.814 200.902,307.453 212.137,314.691 219.237 C 329.200 233.468,332.553 236.740,339.383 243.333 C 347.613 251.279,352.949 256.480,362.840 266.199 C 370.968 274.186,374.570 277.654,374.737 277.654 C 374.932 277.654,374.815 245.629,374.618 245.328 C 374.454 245.077,367.863 238.596,357.901 228.891 C 355.457 226.509,349.838 221.007,345.416 216.663 C 340.993 212.319,334.918 206.404,331.916 203.519 L 326.458 198.272 310.034 198.272 C 301.000 198.272,293.550 198.367,293.478 198.485 M359.893 198.739 C 359.818 198.860,360.228 199.378,360.805 199.890 C 361.381 200.403,364.701 203.582,368.184 206.954 C 371.666 210.327,374.583 213.086,374.665 213.086 C 374.748 213.086,374.815 209.881,374.815 205.964 L 374.815 198.842 371.442 198.680 C 366.599 198.448,360.052 198.481,359.893 198.739 M179.238 222.556 C 174.676 227.058,167.232 234.351,162.694 238.763 C 152.453 248.722,145.225 255.793,135.679 265.193 C 131.605 269.206,125.772 274.928,122.716 277.911 C 119.661 280.893,114.383 286.061,110.988 289.394 C 102.996 297.241,94.239 305.808,88.031 311.852 C 81.259 318.445,69.798 329.718,60.617 338.814 C 56.407 342.985,50.269 349.027,46.975 352.239 C 43.682 355.451,40.988 358.178,40.988 358.299 C 40.988 358.425,47.955 358.518,57.346 358.517 L 73.704 358.515 79.877 352.434 C 83.272 349.089,88.827 343.616,92.222 340.271 C 99.731 332.872,105.915 326.831,117.901 315.184 C 122.926 310.301,130.537 302.858,134.815 298.643 C 142.651 290.922,150.052 283.687,156.409 277.533 C 158.305 275.699,160.649 273.420,161.620 272.469 C 162.590 271.519,168.039 266.187,173.729 260.622 C 179.419 255.056,184.935 249.660,185.988 248.630 L 187.901 246.756 187.901 230.677 C 187.901 221.833,187.818 214.546,187.716 214.484 C 187.614 214.422,183.799 218.055,179.238 222.556 M211.111 230.702 L 211.111 247.125 211.728 247.610 C 212.277 248.042,225.544 261.066,249.753 284.941 C 254.235 289.360,260.012 295.031,262.593 297.542 C 280.130 314.610,295.302 329.469,308.979 342.971 C 313.170 347.108,316.733 350.605,316.897 350.741 C 317.061 350.877,319.028 352.793,321.269 355.000 L 325.342 359.012 341.930 359.012 C 351.054 359.012,358.519 358.920,358.519 358.806 C 358.519 358.693,357.324 357.457,355.864 356.059 C 354.404 354.662,350.488 350.835,347.160 347.555 C 343.833 344.275,338.556 339.107,335.432 336.071 C 332.309 333.035,327.030 327.871,323.702 324.596 C 320.373 321.321,314.985 316.031,311.726 312.840 C 308.468 309.648,302.414 303.708,298.272 299.638 C 294.130 295.569,288.019 289.568,284.691 286.302 C 281.364 283.036,275.140 276.921,270.860 272.713 C 266.579 268.505,257.746 259.842,251.230 253.463 C 244.714 247.084,235.716 238.248,231.235 233.827 C 226.753 229.407,220.499 223.237,217.336 220.117 C 214.174 216.997,211.479 214.407,211.349 214.362 C 211.198 214.310,211.111 220.292,211.111 230.702 M182.837 283.884 C 180.258 286.407,175.535 291.038,172.342 294.174 C 169.148 297.310,164.203 302.152,161.354 304.932 C 158.504 307.713,153.170 312.935,149.499 316.537 C 145.829 320.139,140.662 325.195,138.018 327.773 C 135.373 330.351,129.039 336.573,123.942 341.600 C 118.844 346.627,112.929 352.447,110.796 354.533 C 108.663 356.619,106.980 358.426,107.055 358.548 C 107.136 358.678,113.910 358.717,123.407 358.643 L 139.622 358.516 141.725 356.466 C 142.881 355.338,146.883 351.422,150.617 347.764 C 154.352 344.105,159.519 339.056,162.099 336.544 C 164.679 334.031,170.235 328.576,174.444 324.421 C 178.654 320.266,183.377 315.634,184.938 314.128 L 187.778 311.391 187.692 295.387 C 187.644 286.584,187.588 279.363,187.566 279.339 C 187.544 279.316,185.416 281.360,182.837 283.884 M210.864 295.359 L 210.864 311.501 215.864 316.435 C 218.614 319.149,227.519 327.922,235.652 335.932 C 243.786 343.941,250.786 350.836,251.208 351.253 C 251.630 351.671,253.507 353.499,255.378 355.316 L 258.781 358.619 275.191 358.672 C 284.216 358.701,291.655 358.637,291.722 358.529 C 291.788 358.422,289.655 356.181,286.982 353.549 C 284.308 350.918,278.616 345.321,274.332 341.111 C 270.049 336.901,263.433 330.393,259.630 326.649 C 255.827 322.905,250.439 317.627,247.655 314.921 C 239.468 306.960,232.015 299.662,223.457 291.225 C 214.107 282.007,211.419 279.414,211.097 279.300 C 210.953 279.249,210.864 285.335,210.864 295.359 M180.053 351.057 C 176.076 354.957,172.826 358.287,172.831 358.457 C 172.841 358.819,174.331 358.842,182.284 358.602 L 187.654 358.440 187.654 351.195 C 187.654 347.211,187.571 343.954,187.469 343.958 C 187.367 343.963,184.030 347.157,180.053 351.057 M210.864 351.214 L 210.864 358.519 218.272 358.519 C 222.346 358.519,225.679 358.435,225.678 358.333 C 225.677 358.129,211.419 344.124,211.077 343.992 C 210.960 343.947,210.864 347.197,210.864 351.214 " stroke="none" fill="#fbfbfa" fill-rule="evenodd"></path><path id="path3" d="M210.722 39.124 C 210.359 40.571,210.874 60.357,211.286 60.766 C 211.729 61.206,374.447 61.625,374.730 61.187 C 375.040 60.706,375.241 39.342,374.938 38.932 C 374.731 38.651,361.432 38.592,292.780 38.566 L 210.869 38.535 210.722 39.124 M398.833 75.062 C 398.833 75.673,398.881 75.923,398.940 75.617 C 398.999 75.312,398.999 74.812,398.940 74.506 C 398.881 74.201,398.833 74.451,398.833 75.062 M210.868 87.319 C 210.871 89.460,210.950 90.373,211.111 90.123 C 211.306 89.822,211.351 89.852,211.354 90.288 C 211.356 90.582,211.252 90.860,211.123 90.905 C 210.980 90.955,210.963 91.542,211.080 92.395 C 211.186 93.170,211.180 93.746,211.068 93.677 C 210.833 93.532,210.837 99.961,211.074 103.519 C 211.174 105.024,211.145 105.926,210.994 105.926 C 210.862 105.926,210.979 106.083,211.254 106.276 C 211.675 106.571,216.504 106.648,242.235 106.771 C 258.999 106.851,277.549 106.971,283.457 107.039 C 300.006 107.228,374.215 107.255,374.510 107.073 C 374.655 106.983,374.829 107.050,374.898 107.221 C 374.966 107.391,375.032 102.399,375.042 96.126 C 375.053 89.853,374.978 84.671,374.877 84.611 C 374.775 84.551,337.830 84.421,292.778 84.323 L 210.864 84.145 210.868 87.319 M211.174 130.509 C 210.928 131.066,210.928 131.245,211.174 131.398 C 211.413 131.547,211.417 131.695,211.189 132.062 C 210.748 132.774,210.725 152.012,211.165 152.028 C 216.100 152.213,240.425 152.410,281.605 152.599 C 309.988 152.730,340.765 152.888,350.000 152.951 C 365.803 153.059,374.323 152.922,374.688 152.556 C 374.776 152.467,374.896 147.356,374.955 141.198 C 375.014 135.039,375.007 130.111,374.939 130.247 C 374.858 130.409,371.862 130.441,366.235 130.341 C 361.516 130.256,343.043 130.174,325.185 130.158 C 307.327 130.142,274.438 130.058,252.099 129.971 L 211.481 129.813 211.174 130.509 M58.999 210.556 L 58.148 211.481 59.074 210.631 C 59.936 209.839,60.114 209.630,59.925 209.630 C 59.884 209.630,59.467 210.046,58.999 210.556 M175.295 226.358 L 174.444 227.284 175.370 226.433 C 176.232 225.641,176.410 225.432,176.221 225.432 C 176.180 225.432,175.763 225.849,175.295 226.358 M102.456 233.025 L 101.605 233.951 102.531 233.100 C 103.393 232.308,103.570 232.099,103.382 232.099 C 103.341 232.099,102.924 232.515,102.456 233.025 M92.085 243.148 L 91.235 244.074 92.160 243.223 C 93.022 242.431,93.200 242.222,93.011 242.222 C 92.970 242.222,92.553 242.639,92.085 243.148 M82.217 252.778 L 80.123 254.938 82.284 252.845 C 84.291 250.901,84.557 250.617,84.377 250.617 C 84.340 250.617,83.368 251.590,82.217 252.778 M143.690 257.222 L 142.840 258.148 143.765 257.297 C 144.627 256.505,144.805 256.296,144.616 256.296 C 144.575 256.296,144.158 256.713,143.690 257.222 M68.629 266.111 L 67.778 267.037 68.704 266.186 C 69.566 265.394,69.743 265.185,69.555 265.185 C 69.513 265.185,69.097 265.602,68.629 266.111 M129.497 271.173 L 128.272 272.469 129.568 271.244 C 130.772 270.105,130.977 269.877,130.793 269.877 C 130.754 269.877,130.171 270.460,129.497 271.173 M59.120 275.370 L 58.395 276.173 59.198 275.448 C 59.639 275.049,60.000 274.688,60.000 274.645 C 60.000 274.454,59.796 274.622,59.120 275.370 M117.890 282.531 L 116.914 283.580 117.963 282.604 C 118.939 281.697,119.126 281.481,118.939 281.481 C 118.899 281.481,118.426 281.954,117.890 282.531 M181.096 285.494 L 180.370 286.296 181.173 285.571 C 181.614 285.172,181.975 284.811,181.975 284.769 C 181.975 284.578,181.772 284.746,181.096 285.494 M47.766 286.481 L 46.790 287.531 47.840 286.555 C 48.815 285.647,49.002 285.432,48.816 285.432 C 48.775 285.432,48.303 285.904,47.766 286.481 M167.762 298.580 L 167.037 299.383 167.840 298.658 C 168.281 298.259,168.642 297.898,168.642 297.855 C 168.642 297.664,168.438 297.832,167.762 298.580 M29.491 304.506 L 28.765 305.309 29.568 304.583 C 30.009 304.185,30.370 303.823,30.370 303.781 C 30.370 303.590,30.167 303.758,29.491 304.506 M93.441 306.481 L 92.716 307.284 93.519 306.559 C 94.267 305.883,94.434 305.679,94.244 305.679 C 94.201 305.679,93.840 306.040,93.441 306.481 M145.301 320.556 L 143.827 322.099 145.370 320.625 C 146.219 319.814,146.914 319.120,146.914 319.082 C 146.914 318.899,146.670 319.122,145.301 320.556 M156.530 341.914 L 155.679 342.840 156.605 341.989 C 157.467 341.197,157.644 340.988,157.456 340.988 C 157.415 340.988,156.998 341.404,156.530 341.914 M119.131 346.235 L 116.667 348.765 119.198 346.301 C 120.590 344.945,121.728 343.807,121.728 343.770 C 121.728 343.591,121.420 343.884,119.131 346.235 M53.194 345.988 L 52.469 346.790 53.272 346.065 C 53.713 345.666,54.074 345.305,54.074 345.262 C 54.074 345.072,53.870 345.240,53.194 345.988 M50.856 348.333 L 49.506 349.753 50.926 348.403 C 51.707 347.661,52.346 347.022,52.346 346.984 C 52.346 346.800,52.110 347.014,50.856 348.333 " stroke="none" fill="#fbd106" fill-rule="evenodd"></path><path id="path4" d="M399.352 9.012 C 399.352 10.506,399.393 11.085,399.442 10.300 C 399.491 9.514,399.491 8.292,399.441 7.584 C 399.391 6.876,399.351 7.519,399.352 9.012 M47.996 17.778 C 47.996 19.475,48.036 20.170,48.084 19.321 C 48.132 18.472,48.132 17.083,48.084 16.235 C 48.036 15.386,47.996 16.080,47.996 17.778 M85.507 14.999 C 86.838 15.044,88.949 15.043,90.198 14.999 C 91.447 14.954,90.358 14.917,87.778 14.918 C 85.198 14.918,84.176 14.955,85.507 14.999 M71.201 17.407 C 71.202 18.765,71.243 19.289,71.293 18.572 C 71.343 17.854,71.343 16.743,71.292 16.103 C 71.242 15.462,71.201 16.049,71.201 17.407 M181.173 15.245 C 182.293 15.291,184.127 15.291,185.247 15.245 C 186.367 15.200,185.451 15.162,183.210 15.162 C 180.969 15.162,180.052 15.200,181.173 15.245 M117.633 19.630 C 117.633 22.074,117.670 23.041,117.715 21.778 C 117.760 20.515,117.760 18.515,117.715 17.333 C 117.669 16.152,117.633 17.185,117.633 19.630 M244.012 15.493 C 245.472 15.537,247.861 15.537,249.321 15.493 C 250.781 15.449,249.586 15.414,246.667 15.414 C 243.747 15.414,242.552 15.449,244.012 15.493 M310.432 15.493 C 312.843 15.534,316.787 15.534,319.198 15.493 C 321.608 15.453,319.636 15.420,314.815 15.420 C 309.994 15.420,308.022 15.453,310.432 15.493 M24.560 34.198 C 24.560 42.481,24.592 45.835,24.630 41.649 C 24.667 37.463,24.667 30.685,24.629 26.587 C 24.591 22.489,24.560 25.914,24.560 34.198 M399.114 30.494 C 399.115 32.938,399.152 33.905,399.196 32.642 C 399.241 31.379,399.241 29.379,399.196 28.197 C 399.151 27.016,399.114 28.049,399.114 30.494 M164.313 43.457 C 164.313 50.994,164.344 54.077,164.383 50.309 C 164.421 46.540,164.421 40.373,164.383 36.605 C 164.344 32.836,164.313 35.920,164.313 43.457 M1.348 49.136 C 1.348 55.315,1.380 57.843,1.420 54.753 C 1.459 51.664,1.459 46.608,1.420 43.519 C 1.380 40.429,1.348 42.957,1.348 49.136 M141.101 49.383 C 141.101 55.426,141.133 57.898,141.173 54.877 C 141.212 51.855,141.212 46.910,141.173 43.889 C 141.133 40.867,141.101 43.340,141.101 49.383 M94.402 48.765 C 94.403 49.716,94.448 50.075,94.501 49.562 C 94.555 49.050,94.554 48.272,94.499 47.834 C 94.445 47.396,94.401 47.815,94.402 48.765 M187.499 52.840 C 187.499 54.265,187.540 54.849,187.589 54.136 C 187.639 53.423,187.639 52.256,187.589 51.543 C 187.540 50.830,187.499 51.414,187.499 52.840 M398.861 53.333 C 398.861 55.031,398.900 55.725,398.948 54.877 C 398.996 54.028,398.996 52.639,398.948 51.790 C 398.900 50.941,398.861 51.636,398.861 53.333 M71.232 98.889 C 71.232 124.556,71.261 135.019,71.296 122.141 C 71.332 109.263,71.332 88.263,71.296 75.474 C 71.261 62.686,71.232 73.222,71.232 98.889 M48.012 62.716 C 48.012 67.401,48.045 69.318,48.086 66.975 C 48.127 64.633,48.127 60.799,48.086 58.457 C 48.045 56.114,48.012 58.031,48.012 62.716 M24.536 57.284 C 24.536 58.710,24.577 59.293,24.626 58.580 C 24.676 57.867,24.676 56.701,24.626 55.988 C 24.577 55.275,24.536 55.858,24.536 57.284 M210.728 69.630 C 210.728 74.315,210.761 76.231,210.802 73.889 C 210.843 71.546,210.843 67.713,210.802 65.370 C 210.761 63.028,210.728 64.944,210.728 69.630 M398.873 67.901 C 398.873 71.364,398.907 72.781,398.950 71.049 C 398.992 69.318,398.992 66.485,398.950 64.753 C 398.907 63.022,398.873 64.438,398.873 67.901 M187.764 78.272 C 187.764 82.549,187.798 84.299,187.839 82.160 C 187.880 80.022,187.880 76.522,187.839 74.383 C 187.798 72.244,187.764 73.994,187.764 78.272 M47.991 73.704 C 47.992 75.062,48.034 75.586,48.084 74.868 C 48.134 74.151,48.133 73.040,48.082 72.399 C 48.032 71.759,47.991 72.346,47.991 73.704 M164.560 85.679 C 164.560 93.352,164.591 96.491,164.629 92.654 C 164.668 88.818,164.668 82.540,164.629 78.704 C 164.591 74.867,164.560 78.006,164.560 85.679 M117.897 119.506 C 117.897 133.562,117.926 139.312,117.963 132.284 C 117.999 125.256,117.999 113.756,117.963 106.728 C 117.926 99.701,117.897 105.451,117.897 119.506 M24.314 124.074 C 24.314 133.173,24.345 136.859,24.383 132.266 C 24.420 127.673,24.420 120.228,24.383 115.723 C 24.345 111.217,24.314 114.975,24.314 124.074 M210.725 114.444 C 210.725 118.111,210.760 119.646,210.802 117.854 C 210.844 116.063,210.844 113.063,210.802 111.188 C 210.760 109.312,210.725 110.778,210.725 114.444 M164.540 115.309 C 164.540 117.006,164.579 117.701,164.627 116.852 C 164.675 116.003,164.675 114.614,164.627 113.765 C 164.579 112.917,164.540 113.611,164.540 115.309 M398.632 129.753 C 398.632 135.593,398.664 137.946,398.703 134.983 C 398.743 132.020,398.743 127.243,398.703 124.366 C 398.664 121.489,398.632 123.914,398.632 129.753 M164.563 153.086 C 164.563 165.241,164.593 170.213,164.630 164.136 C 164.666 158.059,164.666 148.114,164.630 142.037 C 164.593 135.960,164.563 140.932,164.563 153.086 M24.268 144.321 C 24.270 145.000,24.318 145.248,24.375 144.873 C 24.431 144.498,24.430 143.942,24.371 143.639 C 24.313 143.335,24.266 143.642,24.268 144.321 M24.312 158.025 C 24.312 164.747,24.344 167.497,24.383 164.136 C 24.421 160.775,24.421 155.275,24.383 151.914 C 24.344 148.552,24.312 151.302,24.312 158.025 M187.764 153.951 C 187.764 158.025,187.797 159.726,187.839 157.731 C 187.880 155.737,187.880 152.403,187.839 150.324 C 187.798 148.245,187.764 149.877,187.764 153.951 M1.103 163.210 C 1.103 170.475,1.134 173.448,1.173 169.815 C 1.211 166.182,1.211 160.238,1.173 156.605 C 1.134 152.972,1.103 155.944,1.103 163.210 M117.868 162.593 C 117.869 163.951,117.910 164.475,117.960 163.757 C 118.010 163.040,118.010 161.929,117.959 161.288 C 117.908 160.648,117.867 161.235,117.868 162.593 M47.763 167.901 C 47.763 171.772,47.797 173.355,47.839 171.420 C 47.881 169.485,47.881 166.318,47.839 164.383 C 47.797 162.448,47.763 164.031,47.763 167.901 M187.958 169.193 L 187.901 175.052 182.284 175.124 L 176.667 175.195 182.292 175.252 C 186.657 175.296,187.944 175.238,188.037 174.995 C 188.103 174.822,188.126 172.128,188.086 169.007 L 188.015 163.333 187.958 169.193 M117.859 173.457 C 117.860 174.407,117.905 174.766,117.958 174.254 C 118.011 173.741,118.011 172.964,117.956 172.525 C 117.901 172.087,117.858 172.506,117.859 173.457 M74.259 174.999 C 76.059 175.042,79.003 175.042,80.802 174.999 C 82.602 174.957,81.130 174.923,77.531 174.923 C 73.932 174.923,72.460 174.957,74.259 174.999 M91.180 174.997 C 91.829 175.048,92.829 175.047,93.403 174.995 C 93.976 174.943,93.444 174.902,92.222 174.902 C 91.000 174.903,90.531 174.946,91.180 174.997 M236.605 175.493 C 238.201 175.536,240.812 175.536,242.407 175.493 C 244.003 175.450,242.698 175.415,239.506 175.415 C 236.315 175.415,235.009 175.450,236.605 175.493 M277.716 175.741 C 281.145 175.779,286.756 175.779,290.185 175.741 C 293.614 175.702,290.809 175.670,283.951 175.670 C 277.093 175.670,274.287 175.702,277.716 175.741 M26.111 197.715 C 27.231 197.760,29.065 197.760,30.185 197.715 C 31.306 197.669,30.389 197.631,28.148 197.631 C 25.907 197.631,24.991 197.669,26.111 197.715 M80.309 197.716 C 83.534 197.755,88.812 197.755,92.037 197.716 C 95.262 197.677,92.623 197.645,86.173 197.645 C 79.722 197.645,77.083 197.677,80.309 197.716 M152.515 197.963 C 155.120 198.003,159.453 198.003,162.144 197.963 C 164.835 197.923,162.704 197.890,157.407 197.890 C 152.111 197.890,149.909 197.923,152.515 197.963 M211.173 197.941 C 210.928 198.040,210.877 203.149,210.924 222.551 C 210.973 242.339,210.997 243.894,211.049 230.659 C 211.090 220.392,211.203 214.312,211.350 214.363 C 211.480 214.408,214.174 216.997,217.336 220.117 C 220.499 223.237,226.753 229.407,231.235 233.827 C 235.716 238.248,244.714 247.084,251.230 253.463 C 257.746 259.842,266.579 268.505,270.860 272.713 C 275.140 276.921,281.364 283.036,284.691 286.302 C 288.019 289.568,294.130 295.569,298.272 299.638 C 302.414 303.708,308.468 309.648,311.726 312.840 C 314.985 316.031,320.373 321.321,323.702 324.596 C 327.030 327.871,332.309 333.035,335.432 336.071 C 338.556 339.107,343.833 344.274,347.160 347.553 C 350.488 350.832,354.432 354.696,355.926 356.139 C 357.668 357.822,358.541 358.830,358.360 358.949 C 358.204 359.052,361.847 359.136,366.455 359.136 C 373.633 359.136,374.866 359.083,375.067 358.765 C 375.362 358.300,375.390 342.390,375.096 342.571 C 374.979 342.644,374.062 341.899,373.059 340.917 C 370.486 338.397,362.023 330.162,357.778 326.047 C 354.561 322.930,336.963 305.704,322.222 291.244 C 319.167 288.246,314.390 283.574,311.607 280.860 C 302.781 272.254,295.196 264.817,286.422 256.167 C 276.603 246.487,268.526 238.585,263.582 233.822 C 259.905 230.281,249.035 219.577,235.679 206.345 C 229.152 199.879,227.605 198.225,227.901 198.029 C 228.283 197.778,211.793 197.691,211.173 197.941 M261.337 198.035 C 261.077 198.127,260.736 198.155,260.579 198.097 C 260.423 198.038,261.806 199.470,263.654 201.279 C 265.502 203.088,269.852 207.344,273.322 210.737 C 276.791 214.129,283.296 220.520,287.778 224.937 C 304.700 241.618,320.433 257.014,332.835 269.028 C 335.209 271.328,341.320 277.326,346.415 282.356 C 351.510 287.386,357.455 293.219,359.626 295.319 C 361.797 297.418,366.158 301.691,369.318 304.815 L 375.063 310.494 375.062 294.328 L 375.062 278.163 372.284 275.448 C 370.756 273.954,366.506 269.789,362.840 266.191 C 352.399 255.945,347.362 251.037,339.383 243.333 C 332.553 236.740,329.200 233.468,314.691 219.237 C 307.444 212.129,295.815 200.902,294.261 199.515 C 293.576 198.903,293.403 198.608,293.594 198.378 C 293.801 198.129,291.339 198.061,281.186 198.039 C 274.219 198.023,267.009 197.978,265.164 197.938 C 263.320 197.899,261.597 197.942,261.337 198.035 M327.297 198.251 C 327.213 198.386,326.983 198.435,326.785 198.359 C 326.587 198.283,327.729 199.480,329.324 201.019 C 336.263 207.718,341.815 213.124,348.272 219.469 C 352.074 223.207,356.908 227.938,359.013 229.984 C 361.119 232.030,365.529 236.350,368.814 239.585 L 374.786 245.467 374.943 244.627 C 375.152 243.514,374.986 212.567,374.773 212.909 C 374.677 213.063,371.923 210.575,368.230 206.999 C 364.722 203.602,361.381 200.403,360.805 199.890 C 360.228 199.378,359.815 198.865,359.885 198.751 C 359.956 198.637,359.650 198.486,359.204 198.416 C 357.557 198.155,327.452 198.000,327.297 198.251 M372.905 198.696 C 373.280 198.752,373.836 198.751,374.139 198.692 C 374.443 198.634,374.136 198.587,373.457 198.589 C 372.778 198.591,372.529 198.639,372.905 198.696 M398.390 233.086 C 398.390 245.377,398.420 250.404,398.457 244.259 C 398.493 238.114,398.493 228.059,398.457 221.914 C 398.420 215.769,398.390 220.796,398.390 233.086 M211.006 247.377 C 210.736 247.815,210.819 279.079,211.092 279.247 C 211.510 279.506,214.925 282.813,223.457 291.225 C 232.015 299.662,239.468 306.960,247.655 314.921 C 250.439 317.627,255.827 322.905,259.630 326.649 C 263.433 330.393,270.049 336.901,274.332 341.111 C 278.616 345.321,284.308 350.918,286.982 353.549 C 289.655 356.181,291.788 358.423,291.720 358.532 C 291.652 358.642,293.960 358.738,296.848 358.745 C 299.736 358.753,307.165 358.833,313.357 358.924 C 320.770 359.032,324.668 359.004,324.768 358.841 C 324.852 358.706,323.008 356.720,320.670 354.430 C 318.332 352.139,313.031 346.931,308.889 342.856 C 291.266 325.519,278.463 312.988,262.593 297.542 C 260.012 295.031,254.235 289.360,249.753 284.941 C 211.540 247.256,211.253 246.978,211.006 247.377 M24.066 262.716 C 24.066 269.846,24.097 272.762,24.136 269.198 C 24.174 265.633,24.174 259.799,24.136 256.235 C 24.097 252.670,24.066 255.586,24.066 262.716 M0.859 302.099 C 0.859 313.506,0.889 318.137,0.926 312.389 C 0.963 306.641,0.963 297.308,0.926 291.648 C 0.889 285.989,0.859 290.691,0.859 302.099 M187.745 285.062 C 187.745 286.420,187.787 286.944,187.837 286.226 C 187.887 285.509,187.886 284.398,187.835 283.757 C 187.785 283.117,187.744 283.704,187.745 285.062 M398.622 301.975 C 398.622 304.623,398.658 305.707,398.703 304.383 C 398.747 303.059,398.747 300.892,398.703 299.568 C 398.658 298.244,398.622 299.327,398.622 301.975 M210.831 317.428 C 210.813 320.676,210.805 327.896,210.812 333.473 L 210.825 343.613 212.511 345.274 C 213.439 346.188,216.781 349.452,219.938 352.529 C 225.884 358.321,225.962 358.411,225.247 358.591 C 225.009 358.651,232.491 358.709,241.874 358.721 L 258.933 358.741 255.454 355.381 C 253.541 353.532,251.630 351.677,251.208 351.257 C 250.786 350.837,243.786 343.941,235.652 335.931 C 227.519 327.922,218.663 319.200,215.972 316.549 C 213.282 313.897,211.032 311.682,210.972 311.626 C 210.913 311.569,210.849 314.180,210.831 317.428 M398.880 350.494 C 398.880 357.691,398.912 360.600,398.950 356.958 C 398.989 353.316,398.989 347.427,398.950 343.872 C 398.912 340.316,398.880 343.296,398.880 350.494 M0.803 344.074 C 0.806 344.617,0.856 344.810,0.915 344.503 C 0.974 344.196,0.972 343.752,0.910 343.516 C 0.849 343.280,0.800 343.531,0.803 344.074 " stroke="none" fill="#0575bc" fill-rule="evenodd"></path></g></svg>